<svg width="100" height="100" viewBox="0 0 100 100" fill="none" xmlns="http://www.w3.org/2000/svg">
<rect width="100" height="100" fill="black"/>
<path d="M36.35 25.29H81.43V29.7H36.35V25.29ZM35.58 65.26H81.85V69.53H35.58V65.26ZM44.96 40.2V47.55H72.19V40.2H44.96ZM40.27 36.28H77.16V51.54H40.27V36.28ZM38.59 56.23H78.91V60.43H38.59V56.23ZM55.74 38.31H60.85V56.51C60.85 66.66 57.98 77.51 37.26 83.74C36.63 82.55 35.23 80.73 34.11 79.68C53.92 74.5 55.74 64.84 55.74 56.44V38.31ZM61.9 66.66C65.19 73.31 72.61 77.65 82.48 79.33C81.29 80.31 79.89 82.34 79.12 83.67C68.83 81.36 61.27 75.97 57.56 67.85L61.9 66.66ZM47.62 19.27H52.52V34.81H47.62V19.27ZM64.14 19.27H69.04V34.81H64.14V19.27ZM21.23 23.68L24.17 19.83C28.44 21.72 33.62 24.87 36.14 27.32L33.06 31.59C30.61 29.07 25.43 25.71 21.23 23.68ZM17.59 42.58L20.53 38.59C24.8 40.34 30.05 43.28 32.71 45.59L29.63 49.93C27.11 47.55 21.93 44.47 17.59 42.58ZM19.48 79.47C22.84 74.08 27.46 64.91 30.89 56.93L35.02 60.08C31.94 67.5 27.74 76.18 24.17 82.69L19.48 79.47Z" fill="white"/>
</svg>
