<svg width="406" height="396" viewBox="0 0 406 396" fill="none" xmlns="http://www.w3.org/2000/svg">
<path d="M247.719 167.907L258.887 163.927L259.459 165.533L248.291 169.512L247.719 167.907ZM250.673 168.332C255.038 175.363 260.68 180.257 267.785 180.604C267.514 181.058 267.25 181.891 267.138 182.364C259.695 181.78 254.027 176.742 249.249 169.196L250.673 168.332ZM258.503 164.064L258.774 163.968L259.013 163.781L260.205 163.764C262.392 174.908 259.341 182.289 253.719 187.247C253.362 186.89 252.722 186.379 252.239 186.169C257.622 181.755 260.562 174.49 258.632 164.426L258.503 164.064ZM241.573 169.893L242.014 168.411C243.731 168.513 245.939 168.847 247.179 169.322L246.75 170.978C245.556 170.487 243.33 170.032 241.573 169.893ZM242.642 176.468L243.044 174.949C244.708 175.044 246.916 175.378 248.132 175.786L247.756 177.448C246.578 177.002 244.345 176.6 242.642 176.468ZM247.438 187.854C248.047 185.701 248.747 182.089 249.117 179.052L250.657 179.727C250.313 182.55 249.76 185.932 249.175 188.51L247.438 187.854ZM272.785 159.23L287.344 154.043L287.852 155.467L273.292 160.655L272.785 159.23ZM277.136 172.228L292.08 166.903L292.571 168.282L277.627 173.607L277.136 172.228ZM277.281 163.055L278.127 165.429L286.922 162.295L286.076 159.921L277.281 163.055ZM275.316 162.329L287.23 158.083L288.986 163.012L277.072 167.257L275.316 162.329ZM277.069 168.965L290.091 164.325L290.574 165.682L277.552 170.322L277.069 168.965ZM280.545 161.204L282.196 160.616L284.29 166.494C285.458 169.772 285.78 173.606 279.805 178.003C279.465 177.691 278.803 177.264 278.321 177.054C284.122 173.102 283.599 169.772 282.632 167.059L280.545 161.204ZM285.797 169.651C287.625 171.42 290.521 171.968 293.902 171.375C293.631 171.828 293.412 172.645 293.316 173.163C289.727 173.601 286.665 172.73 284.533 170.535L285.797 169.651ZM275.732 155.989L277.314 155.425L279.103 160.444L277.52 161.008L275.732 155.989ZM281.067 154.088L282.65 153.524L284.438 158.543L282.856 159.107L281.067 154.088ZM267.716 160.45L268.223 158.869C269.819 158.988 271.855 159.409 272.951 159.91L272.447 161.644C271.366 161.112 269.306 160.623 267.716 160.45ZM268.716 166.973L269.206 165.346C270.787 165.42 272.82 165.765 273.945 166.205L273.45 167.962C272.362 167.483 270.335 167.084 268.716 166.973ZM273.571 178.67C274.036 176.543 274.473 173.049 274.663 170.077L276.359 170.619C276.218 173.37 275.86 176.657 275.457 179.17L273.571 178.67ZM302.366 167.875L299.269 168.978L293.63 153.153L296.727 152.049L298.999 158.425L302.616 157.136L300.345 150.761L303.442 149.657L309.081 165.482L305.983 166.586L303.647 160.03L300.03 161.319L302.366 167.875ZM317.994 162.306L316.625 159.966L313.053 161.239L313.473 163.917L310.398 165.013L307.811 148.1L312.491 146.433L321.024 161.227L317.994 162.306ZM311.097 150.242L312.092 155.823L312.553 158.691L315.379 157.684L313.901 155.179L311.142 150.225L311.097 150.242ZM329.394 158.244L322.049 151.002L321.952 151.087L323.038 153.706L325.189 159.743L322.34 160.758L316.701 144.932L318.985 144.119L326.383 151.725L326.48 151.639L325.24 148.947L323.009 142.685L325.857 141.67L331.496 157.495L329.394 158.244ZM259.131 199.934L270.3 195.955L270.871 197.56L259.703 201.54L259.131 199.934ZM262.085 200.36C266.45 207.39 272.093 212.285 279.197 212.632C278.926 213.085 278.662 213.918 278.55 214.391C271.107 213.808 265.439 208.77 260.661 201.224L262.085 200.36ZM269.915 196.092L270.186 195.995L270.426 195.808L271.617 195.791C273.804 206.936 270.753 214.316 265.131 219.275C264.774 218.918 264.134 218.407 263.651 218.197C269.034 213.782 271.974 206.518 270.044 196.454L269.915 196.092ZM252.985 201.921L253.426 200.439C255.143 200.54 257.352 200.874 258.591 201.35L258.162 203.006C256.968 202.514 254.742 202.059 252.985 201.921ZM254.054 208.495L254.456 206.976C256.12 207.071 258.328 207.405 259.544 207.813L259.168 209.476C257.99 209.029 255.757 208.627 254.054 208.495ZM258.85 219.882C259.459 217.729 260.159 214.116 260.529 211.08L262.069 211.754C261.725 214.578 261.172 217.959 260.587 220.537L258.85 219.882ZM284.197 191.258L298.756 186.07L299.264 187.494L284.704 192.682L284.197 191.258ZM288.548 204.255L303.492 198.931L303.983 200.31L289.039 205.635L288.548 204.255ZM288.693 195.082L289.539 197.456L298.334 194.323L297.488 191.949L288.693 195.082ZM286.728 194.356L298.642 190.111L300.398 195.039L288.484 199.285L286.728 194.356ZM288.481 200.993L301.503 196.353L301.986 197.709L288.964 202.349L288.481 200.993ZM291.958 193.232L293.608 192.643L295.702 198.521C296.87 201.8 297.192 205.634 291.217 210.031C290.877 209.719 290.215 209.292 289.733 209.082C295.535 205.129 295.011 201.8 294.044 199.087L291.958 193.232ZM297.21 201.679C299.037 203.448 301.933 203.996 305.314 203.402C305.043 203.856 304.824 204.673 304.729 205.191C301.139 205.629 298.077 204.758 295.945 202.563L297.21 201.679ZM287.144 188.017L288.726 187.453L290.515 192.472L288.932 193.036L287.144 188.017ZM292.479 186.116L294.062 185.552L295.85 190.571L294.268 191.134L292.479 186.116ZM279.128 192.478L279.635 190.896C281.231 191.015 283.267 191.436 284.363 191.938L283.859 193.671C282.778 193.139 280.718 192.65 279.128 192.478ZM280.128 199.001L280.618 197.374C282.199 197.448 284.232 197.793 285.357 198.233L284.862 199.989C283.774 199.51 281.747 199.112 280.128 199.001ZM284.983 210.698C285.448 208.57 285.885 205.077 286.075 202.105L287.771 202.647C287.63 205.398 287.273 208.685 286.869 211.198L284.983 210.698ZM313.778 199.902L310.681 201.006L305.042 185.181L308.139 184.077L310.411 190.452L314.028 189.163L311.757 182.788L314.854 181.685L320.493 197.51L317.396 198.614L315.059 192.057L311.442 193.346L313.778 199.902ZM329.406 194.334L328.037 191.993L324.465 193.266L324.885 195.945L321.81 197.04L319.223 180.128L323.903 178.46L332.436 193.254L329.406 194.334ZM322.509 182.269L323.504 187.851L323.965 190.718L326.791 189.711L325.313 187.206L322.554 182.253L322.509 182.269ZM340.806 190.272L333.461 183.029L333.364 183.115L334.45 185.734L336.601 191.77L333.752 192.785L328.113 176.96L330.397 176.146L337.795 183.752L337.892 183.667L336.652 180.975L334.421 174.712L337.27 173.697L342.908 189.523L340.806 190.272ZM270.543 231.962L281.712 227.983L282.284 229.588L271.115 233.567L270.543 231.962ZM273.497 232.387C277.863 239.418 283.505 244.312 290.609 244.66C290.338 245.113 290.074 245.946 289.962 246.419C282.519 245.835 276.851 240.797 272.073 233.251L273.497 232.387ZM281.327 228.12L281.599 228.023L281.838 227.836L283.029 227.819C285.217 238.963 282.165 246.344 276.543 251.302C276.186 250.945 275.546 250.435 275.063 250.224C280.446 245.81 283.386 238.545 281.456 228.481L281.327 228.12ZM264.397 233.948L264.838 232.466C266.555 232.568 268.764 232.902 270.003 233.377L269.574 235.034C268.38 234.542 266.154 234.087 264.397 233.948ZM265.466 240.523L265.868 239.004C267.532 239.099 269.74 239.433 270.956 239.841L270.58 241.503C269.402 241.057 267.169 240.655 265.466 240.523ZM270.262 251.91C270.871 249.756 271.571 246.144 271.941 243.107L273.481 243.782C273.137 246.605 272.584 249.987 271.999 252.565L270.262 251.91ZM295.609 223.285L310.168 218.098L310.676 219.522L296.116 224.71L295.609 223.285ZM299.96 236.283L314.904 230.958L315.395 232.337L300.451 237.662L299.96 236.283ZM300.106 227.11L300.951 229.484L309.746 226.35L308.9 223.976L300.106 227.11ZM298.14 226.384L310.054 222.138L311.81 227.067L299.896 231.312L298.14 226.384ZM299.893 233.02L312.915 228.38L313.398 229.737L300.376 234.377L299.893 233.02ZM303.37 225.259L305.02 224.671L307.114 230.549C308.283 233.827 308.604 237.662 302.629 242.058C302.289 241.746 301.627 241.32 301.145 241.109C306.947 237.157 306.423 233.827 305.456 231.114L303.37 225.259ZM308.622 233.706C310.449 235.475 313.345 236.023 316.726 235.43C316.455 235.883 316.236 236.7 316.141 237.218C312.551 237.656 309.49 236.786 307.357 234.59L308.622 233.706ZM298.556 220.044L300.139 219.48L301.927 224.499L300.344 225.063L298.556 220.044ZM303.891 218.143L305.474 217.579L307.262 222.598L305.68 223.162L303.891 218.143ZM290.54 224.505L291.047 222.924C292.643 223.043 294.679 223.464 295.775 223.965L295.271 225.699C294.19 225.167 292.131 224.678 290.54 224.505ZM291.54 231.028L292.03 229.401C293.611 229.475 295.645 229.821 296.77 230.261L296.274 232.017C295.186 231.538 293.159 231.139 291.54 231.028ZM296.396 242.725C296.86 240.598 297.297 237.104 297.487 234.132L299.183 234.675C299.042 237.425 298.685 240.712 298.281 243.225L296.396 242.725ZM325.19 231.93L322.093 233.034L316.454 217.208L319.551 216.105L321.823 222.48L325.44 221.191L323.169 214.816L326.266 213.712L331.905 229.537L328.808 230.641L326.471 224.085L322.854 225.374L325.19 231.93ZM340.818 226.361L339.45 224.021L335.878 225.294L336.297 227.972L333.222 229.068L330.635 212.155L335.315 210.488L343.848 225.282L340.818 226.361ZM333.921 214.297L334.916 219.878L335.377 222.746L338.203 221.739L336.725 219.234L333.966 214.281L333.921 214.297ZM352.218 222.299L344.873 215.057L344.776 215.142L345.862 217.762L348.013 223.798L345.164 224.813L339.526 208.987L341.809 208.174L349.207 215.78L349.304 215.694L348.064 213.002L345.833 206.74L348.682 205.725L354.321 221.55L352.218 222.299Z" fill="white" fill-opacity="0.2"/>
<path d="M287.719 272.907L298.887 268.927L299.459 270.533L288.291 274.512L287.719 272.907ZM290.673 273.332C295.038 280.363 300.68 285.257 307.785 285.604C307.514 286.058 307.25 286.891 307.138 287.364C299.695 286.78 294.027 281.742 289.249 274.196L290.673 273.332ZM298.503 269.064L298.774 268.968L299.013 268.781L300.205 268.764C302.392 279.908 299.341 287.289 293.719 292.247C293.362 291.89 292.722 291.379 292.239 291.169C297.622 286.755 300.562 279.49 298.632 269.426L298.503 269.064ZM281.573 274.893L282.014 273.411C283.731 273.513 285.939 273.847 287.179 274.322L286.75 275.978C285.556 275.487 283.33 275.032 281.573 274.893ZM282.642 281.468L283.044 279.949C284.708 280.044 286.916 280.378 288.132 280.786L287.756 282.448C286.578 282.002 284.345 281.6 282.642 281.468ZM287.438 292.854C288.047 290.701 288.747 287.089 289.117 284.052L290.657 284.727C290.313 287.55 289.76 290.932 289.175 293.51L287.438 292.854ZM312.785 264.23L327.344 259.043L327.852 260.467L313.292 265.655L312.785 264.23ZM317.136 277.228L332.08 271.903L332.571 273.282L317.627 278.607L317.136 277.228ZM317.281 268.055L318.127 270.429L326.922 267.295L326.076 264.921L317.281 268.055ZM315.316 267.329L327.23 263.083L328.986 268.012L317.072 272.257L315.316 267.329ZM317.069 273.965L330.091 269.325L330.574 270.682L317.552 275.322L317.069 273.965ZM320.545 266.204L322.196 265.616L324.29 271.494C325.458 274.772 325.78 278.606 319.805 283.003C319.465 282.691 318.803 282.264 318.321 282.054C324.122 278.102 323.599 274.772 322.632 272.059L320.545 266.204ZM325.797 274.651C327.625 276.42 330.521 276.968 333.902 276.375C333.631 276.828 333.412 277.645 333.316 278.163C329.727 278.601 326.665 277.73 324.533 275.535L325.797 274.651ZM315.732 260.989L317.314 260.425L319.103 265.444L317.52 266.008L315.732 260.989ZM321.067 259.088L322.65 258.524L324.438 263.543L322.856 264.107L321.067 259.088ZM307.716 265.45L308.223 263.869C309.819 263.988 311.855 264.409 312.951 264.91L312.447 266.644C311.366 266.112 309.306 265.623 307.716 265.45ZM308.716 271.973L309.206 270.346C310.787 270.42 312.82 270.765 313.945 271.205L313.45 272.962C312.362 272.483 310.335 272.084 308.716 271.973ZM313.571 283.67C314.036 281.543 314.473 278.049 314.663 275.077L316.359 275.619C316.218 278.37 315.86 281.657 315.457 284.17L313.571 283.67ZM342.366 272.875L339.269 273.978L333.63 258.153L336.727 257.049L338.999 263.425L342.616 262.136L340.345 255.761L343.442 254.657L349.081 270.482L345.983 271.586L343.647 265.03L340.03 266.319L342.366 272.875ZM357.994 267.306L356.625 264.966L353.053 266.239L353.473 268.917L350.398 270.013L347.811 253.1L352.491 251.433L361.024 266.227L357.994 267.306ZM351.097 255.242L352.092 260.823L352.553 263.691L355.379 262.684L353.901 260.179L351.142 255.225L351.097 255.242ZM369.394 263.244L362.049 256.002L361.952 256.087L363.038 258.706L365.189 264.743L362.34 265.758L356.701 249.932L358.985 249.119L366.383 256.725L366.48 256.639L365.24 253.947L363.009 247.685L365.857 246.67L371.496 262.495L369.394 263.244ZM299.131 304.934L310.3 300.955L310.871 302.56L299.703 306.54L299.131 304.934ZM302.085 305.36C306.45 312.39 312.093 317.285 319.197 317.632C318.926 318.085 318.662 318.918 318.55 319.391C311.107 318.808 305.439 313.77 300.661 306.224L302.085 305.36ZM309.915 301.092L310.186 300.995L310.426 300.808L311.617 300.791C313.804 311.936 310.753 319.316 305.131 324.275C304.774 323.918 304.134 323.407 303.651 323.197C309.034 318.782 311.974 311.518 310.044 301.454L309.915 301.092ZM292.985 306.921L293.426 305.439C295.143 305.54 297.352 305.874 298.591 306.35L298.162 308.006C296.968 307.514 294.742 307.059 292.985 306.921ZM294.054 313.495L294.456 311.976C296.12 312.071 298.328 312.405 299.544 312.813L299.168 314.476C297.99 314.029 295.757 313.627 294.054 313.495ZM298.85 324.882C299.459 322.729 300.159 319.116 300.529 316.08L302.069 316.754C301.725 319.578 301.172 322.959 300.587 325.537L298.85 324.882ZM324.197 296.258L338.756 291.07L339.264 292.494L324.704 297.682L324.197 296.258ZM328.548 309.255L343.492 303.931L343.983 305.31L329.039 310.635L328.548 309.255ZM328.693 300.082L329.539 302.456L338.334 299.323L337.488 296.949L328.693 300.082ZM326.728 299.356L338.642 295.111L340.398 300.039L328.484 304.285L326.728 299.356ZM328.481 305.993L341.503 301.353L341.986 302.709L328.964 307.349L328.481 305.993ZM331.958 298.232L333.608 297.643L335.702 303.521C336.87 306.8 337.192 310.634 331.217 315.031C330.877 314.719 330.215 314.292 329.733 314.082C335.535 310.129 335.011 306.8 334.044 304.087L331.958 298.232ZM337.21 306.679C339.037 308.448 341.933 308.996 345.314 308.402C345.043 308.856 344.824 309.673 344.729 310.191C341.139 310.629 338.077 309.758 335.945 307.563L337.21 306.679ZM327.144 293.017L328.726 292.453L330.515 297.472L328.932 298.036L327.144 293.017ZM332.479 291.116L334.062 290.552L335.85 295.571L334.268 296.134L332.479 291.116ZM319.128 297.478L319.635 295.896C321.231 296.015 323.267 296.436 324.363 296.938L323.859 298.671C322.778 298.139 320.718 297.65 319.128 297.478ZM320.128 304.001L320.618 302.374C322.199 302.448 324.232 302.793 325.357 303.233L324.862 304.989C323.774 304.51 321.747 304.112 320.128 304.001ZM324.983 315.698C325.448 313.57 325.885 310.077 326.075 307.105L327.771 307.647C327.63 310.398 327.273 313.685 326.869 316.198L324.983 315.698ZM353.778 304.902L350.681 306.006L345.042 290.181L348.139 289.077L350.411 295.452L354.028 294.163L351.757 287.788L354.854 286.685L360.493 302.51L357.396 303.614L355.059 297.057L351.442 298.346L353.778 304.902ZM369.406 299.334L368.037 296.993L364.465 298.266L364.885 300.945L361.81 302.04L359.223 285.128L363.903 283.46L372.436 298.254L369.406 299.334ZM362.509 287.269L363.504 292.851L363.965 295.718L366.791 294.711L365.313 292.206L362.554 287.253L362.509 287.269ZM380.806 295.272L373.461 288.029L373.364 288.115L374.45 290.734L376.601 296.77L373.752 297.785L368.113 281.96L370.397 281.146L377.795 288.752L377.892 288.667L376.652 285.975L374.421 279.712L377.27 278.697L382.908 294.523L380.806 295.272ZM310.543 336.962L321.712 332.983L322.284 334.588L311.115 338.567L310.543 336.962ZM313.497 337.387C317.863 344.418 323.505 349.312 330.609 349.66C330.338 350.113 330.074 350.946 329.962 351.419C322.519 350.835 316.851 345.797 312.073 338.251L313.497 337.387ZM321.327 333.12L321.599 333.023L321.838 332.836L323.029 332.819C325.217 343.963 322.165 351.344 316.543 356.302C316.186 355.945 315.546 355.435 315.063 355.224C320.446 350.81 323.386 343.545 321.456 333.481L321.327 333.12ZM304.397 338.948L304.838 337.466C306.555 337.568 308.764 337.902 310.003 338.377L309.574 340.034C308.38 339.542 306.154 339.087 304.397 338.948ZM305.466 345.523L305.868 344.004C307.532 344.099 309.74 344.433 310.956 344.841L310.58 346.503C309.402 346.057 307.169 345.655 305.466 345.523ZM310.262 356.91C310.871 354.756 311.571 351.144 311.941 348.107L313.481 348.782C313.137 351.605 312.584 354.987 311.999 357.565L310.262 356.91ZM335.609 328.285L350.168 323.098L350.676 324.522L336.116 329.71L335.609 328.285ZM339.96 341.283L354.904 335.958L355.395 337.337L340.451 342.662L339.96 341.283ZM340.106 332.11L340.951 334.484L349.746 331.35L348.9 328.976L340.106 332.11ZM338.14 331.384L350.054 327.138L351.81 332.067L339.896 336.312L338.14 331.384ZM339.893 338.02L352.915 333.38L353.398 334.737L340.376 339.377L339.893 338.02ZM343.37 330.259L345.02 329.671L347.114 335.549C348.283 338.827 348.604 342.662 342.629 347.058C342.289 346.746 341.627 346.32 341.145 346.109C346.947 342.157 346.423 338.827 345.456 336.114L343.37 330.259ZM348.622 338.706C350.449 340.475 353.345 341.023 356.726 340.43C356.455 340.883 356.236 341.7 356.141 342.218C352.551 342.656 349.49 341.786 347.357 339.59L348.622 338.706ZM338.556 325.044L340.139 324.48L341.927 329.499L340.344 330.063L338.556 325.044ZM343.891 323.143L345.474 322.579L347.262 327.598L345.68 328.162L343.891 323.143ZM330.54 329.505L331.047 327.924C332.643 328.043 334.679 328.464 335.775 328.965L335.271 330.699C334.19 330.167 332.131 329.678 330.54 329.505ZM331.54 336.028L332.03 334.401C333.611 334.475 335.645 334.821 336.77 335.261L336.274 337.017C335.186 336.538 333.159 336.139 331.54 336.028ZM336.396 347.725C336.86 345.598 337.297 342.104 337.487 339.132L339.183 339.675C339.042 342.425 338.685 345.712 338.281 348.225L336.396 347.725ZM365.19 336.93L362.093 338.034L356.454 322.208L359.551 321.105L361.823 327.48L365.44 326.191L363.169 319.816L366.266 318.712L371.905 334.537L368.808 335.641L366.471 329.085L362.854 330.374L365.19 336.93ZM380.818 331.361L379.45 329.021L375.878 330.294L376.297 332.972L373.222 334.068L370.635 317.155L375.315 315.488L383.848 330.282L380.818 331.361ZM373.921 319.297L374.916 324.878L375.377 327.746L378.203 326.739L376.725 324.234L373.966 319.281L373.921 319.297ZM392.218 327.299L384.873 320.057L384.776 320.142L385.862 322.762L388.013 328.798L385.164 329.813L379.526 313.987L381.809 313.174L389.207 320.78L389.304 320.694L388.064 318.002L385.833 311.74L388.682 310.725L394.321 326.55L392.218 327.299Z" fill="white" fill-opacity="0.2"/>
<path d="M10.7192 64.9069L21.8874 60.9275L22.4594 62.5326L11.2912 66.5121L10.7192 64.9069ZM13.6733 65.3321C18.0384 72.3628 23.6804 77.257 30.7852 77.6044C30.5137 78.0579 30.2499 78.8907 30.1382 79.3636C22.6945 78.7803 17.0268 73.7424 12.2488 66.1963L13.6733 65.3321ZM21.5031 61.0644L21.7744 60.9677L22.0135 60.7806L23.2049 60.7638C25.3924 71.908 22.3406 79.2885 16.7188 84.2472C16.3623 83.8901 15.7218 83.3795 15.2392 83.1693C20.6216 78.7545 23.562 71.4902 21.632 61.4261L21.5031 61.0644ZM4.57333 66.893L5.01353 65.4113C6.73119 65.5127 8.93947 65.8468 10.179 66.3224L9.74997 67.9785C8.55566 67.4868 6.32971 67.0315 4.57333 66.893ZM5.64212 73.4677L6.0436 71.9488C7.70799 72.0437 9.91627 72.3779 11.1316 72.7856L10.7559 74.4481C9.57767 74.0017 7.34523 73.5997 5.64212 73.4677ZM10.4383 84.8544C11.0469 82.7012 11.747 79.0887 12.1173 76.0523L13.6569 76.7266C13.3126 79.5499 12.7596 82.9317 12.1749 85.5095L10.4383 84.8544ZM35.7848 56.2303L50.3442 51.0425L50.8517 52.4668L36.2923 57.6546L35.7848 56.2303ZM40.1359 69.2279L55.0796 63.9032L55.571 65.2822L40.6273 70.607L40.1359 69.2279ZM40.2814 60.0549L41.1272 62.4287L49.9216 59.2951L49.0758 56.9213L40.2814 60.0549ZM38.3156 59.3286L50.2298 55.0833L51.986 60.0118L40.0717 64.2571L38.3156 59.3286ZM40.0688 65.9651L53.0909 61.3251L53.5742 62.6816L40.5522 67.3216L40.0688 65.9651ZM43.5455 58.204L45.1959 57.6159L47.2903 63.4939C48.4584 66.772 48.7801 70.6065 42.8051 75.003C42.4647 74.6912 41.8031 74.2645 41.3206 74.0543C47.1224 70.1016 46.5986 66.7723 45.6319 64.0593L43.5455 58.204ZM48.7975 66.6512C50.6253 68.4203 53.5212 68.9681 56.9022 68.3748C56.6307 68.8283 56.4121 69.645 56.3165 70.1632C52.7273 70.6013 49.6654 69.7305 47.5327 67.535L48.7975 66.6512ZM38.7319 52.9891L40.3144 52.4252L42.1028 57.4441L40.5202 58.008L38.7319 52.9891ZM44.0673 51.088L45.6498 50.5241L47.4382 55.543L45.8556 56.1069L44.0673 51.088ZM30.7163 57.4504L31.2227 55.8686C32.8193 55.9876 34.8548 56.4088 35.9506 56.9101L35.4473 58.6436C34.366 58.1117 32.3064 57.6226 30.7163 57.4504ZM31.7157 63.9733L32.206 62.3463C33.7865 62.4201 35.8204 62.7655 36.9453 63.2054L36.4501 64.9616C35.3623 64.4829 33.3349 64.0843 31.7157 63.9733ZM36.5714 75.6701C37.0363 73.5426 37.4731 70.0493 37.6625 67.0773L39.3589 67.6194C39.2181 70.3703 38.8605 73.6569 38.4567 76.1703L36.5714 75.6701ZM65.3662 64.8748L62.269 65.9785L56.63 50.1531L59.7273 49.0495L61.999 55.4248L65.6162 54.1359L63.3445 47.7606L66.4418 46.657L72.0807 62.4823L68.9834 63.5859L66.6473 57.0297L63.0301 58.3186L65.3662 64.8748ZM80.9943 59.3062L79.6254 56.9659L76.0534 58.2387L76.4728 60.9173L73.3981 62.0129L70.8112 45.1L75.491 43.4325L84.0237 58.2268L80.9943 59.3062ZM74.0966 47.2415L75.0919 52.8233L75.5531 55.6908L78.3791 54.6839L76.9005 52.1788L74.1418 47.2254L74.0966 47.2415ZM92.3939 55.2443L85.0487 48.0015L84.9518 48.087L86.038 50.7064L88.1888 56.7427L85.3403 57.7577L79.7014 41.9323L81.9847 41.1187L89.3829 48.7247L89.4798 48.6392L88.2403 45.9471L86.0089 39.6848L88.8575 38.6698L94.4964 54.4952L92.3939 55.2443ZM22.1313 96.9345L33.2995 92.955L33.8715 94.5602L22.7033 98.5396L22.1313 96.9345ZM25.0854 97.3596C29.4505 104.39 35.0925 109.285 42.1973 109.632C41.9258 110.085 41.662 110.918 41.5503 111.391C34.1066 110.808 28.4389 105.77 23.6608 98.2239L25.0854 97.3596ZM32.9152 93.092L33.1865 92.9953L33.4256 92.8082L34.617 92.7913C36.8045 103.936 33.7527 111.316 28.1309 116.275C27.7744 115.918 27.1338 115.407 26.6513 115.197C32.0337 110.782 34.974 103.518 33.0441 93.4537L32.9152 93.092ZM15.9854 98.9206L16.4256 97.4389C18.1433 97.5402 20.3515 97.8744 21.5911 98.3499L21.162 100.006C19.9677 99.5144 17.7418 99.0591 15.9854 98.9206ZM17.0542 105.495L17.4557 103.976C19.1201 104.071 21.3284 104.405 22.5437 104.813L22.168 106.476C20.9898 106.029 18.7573 105.627 17.0542 105.495ZM21.8504 116.882C22.459 114.729 23.159 111.116 23.5293 108.08L25.069 108.754C24.7247 111.578 24.1717 114.959 23.587 117.537L21.8504 116.882ZM47.1969 88.2579L61.7563 83.0701L62.2638 84.4944L47.7044 89.6822L47.1969 88.2579ZM51.548 101.255L66.4916 95.9307L66.983 97.3098L52.0393 102.635L51.548 101.255ZM51.6935 92.0825L52.5393 94.4563L61.3337 91.3227L60.4879 88.9489L51.6935 92.0825ZM49.7277 91.3562L61.6419 87.1109L63.398 92.0394L51.4838 96.2846L49.7277 91.3562ZM51.4809 97.9927L64.5029 93.3527L64.9863 94.7091L51.9643 99.3492L51.4809 97.9927ZM54.9576 90.2315L56.6079 89.6435L58.7024 95.5215C59.8704 98.7996 60.1921 102.634 54.2172 107.031C53.8768 106.719 53.2152 106.292 52.7326 106.082C58.5345 102.129 58.0106 98.7998 57.044 96.0869L54.9576 90.2315ZM60.2096 98.6787C62.0374 100.448 64.9333 100.996 68.3143 100.402C68.0427 100.856 67.8242 101.673 67.7286 102.191C64.1394 102.629 61.0775 101.758 58.9448 99.5625L60.2096 98.6787ZM50.144 85.0167L51.7265 84.4528L53.5148 89.4717L51.9323 90.0356L50.144 85.0167ZM55.4794 83.1155L57.0619 82.5517L58.8503 87.5706L57.2677 88.1345L55.4794 83.1155ZM42.1284 89.4779L42.6348 87.8962C44.2314 88.0152 46.2669 88.4364 47.3627 88.9377L46.8593 90.6712C45.7781 90.1393 43.7184 89.6502 42.1284 89.4779ZM43.1278 96.0009L43.6181 94.3739C45.1986 94.4477 47.2325 94.7931 48.3574 95.233L47.8621 96.9891C46.7744 96.5105 44.747 96.1118 43.1278 96.0009ZM47.9835 107.698C48.4484 105.57 48.8852 102.077 49.0746 99.1049L50.771 99.647C50.6301 102.398 50.2726 105.685 49.8687 108.198L47.9835 107.698ZM76.7783 96.9024L73.681 98.006L68.0421 82.1806L71.1394 81.077L73.4111 87.4524L77.0283 86.1635L74.7566 79.7881L77.8539 78.6845L83.4928 94.5099L80.3955 95.6135L78.0594 89.0573L74.4422 90.3462L76.7783 96.9024ZM92.4064 91.3338L91.0375 88.9935L87.4654 90.2663L87.8848 92.9449L84.8102 94.0405L82.2233 77.1276L86.9031 75.4601L95.4358 90.2543L92.4064 91.3338ZM85.5087 79.2691L86.504 84.8508L86.9652 87.7184L89.7912 86.7114L88.3126 84.2064L85.5539 79.253L85.5087 79.2691ZM103.806 87.2719L96.4608 80.0291L96.3639 80.1146L97.4501 82.734L99.6009 88.7702L96.7524 89.7852L91.1134 73.9598L93.3968 73.1462L100.795 80.7523L100.892 80.6668L99.6524 77.9747L97.421 71.7123L100.27 70.6973L105.908 86.5227L103.806 87.2719ZM33.5434 128.962L44.7116 124.983L45.2835 126.588L34.1153 130.567L33.5434 128.962ZM36.4975 129.387C40.8626 136.418 46.5046 141.312 53.6094 141.66C53.3378 142.113 53.0741 142.946 52.9623 143.419C45.5187 142.835 39.8509 137.797 35.0729 130.251L36.4975 129.387ZM44.3273 125.12L44.5986 125.023L44.8376 124.836L46.0291 124.819C48.2166 135.963 45.1648 143.344 39.543 148.302C39.1865 147.945 38.5459 147.435 38.0634 147.224C43.4458 142.81 46.3861 135.545 44.4562 125.481L44.3273 125.12ZM27.3975 130.948L27.8377 129.466C29.5554 129.568 31.7636 129.902 33.0032 130.377L32.5741 132.034C31.3798 131.542 29.1539 131.087 27.3975 130.948ZM28.4663 137.523L28.8678 136.004C30.5322 136.099 32.7404 136.433 33.9558 136.841L33.58 138.503C32.4018 138.057 30.1694 137.655 28.4663 137.523ZM33.2625 148.91C33.8711 146.756 34.5711 143.144 34.9414 140.107L36.4811 140.782C36.1368 143.605 35.5838 146.987 34.9991 149.565L33.2625 148.91ZM58.609 120.285L73.1683 115.098L73.6758 116.522L59.1165 121.71L58.609 120.285ZM62.96 133.283L77.9037 127.958L78.3951 129.337L63.4514 134.662L62.96 133.283ZM63.1056 124.11L63.9514 126.484L72.7458 123.35L71.9 120.976L63.1056 124.11ZM61.1397 123.384L73.054 119.138L74.8101 124.067L62.8959 128.312L61.1397 123.384ZM62.893 130.02L75.915 125.38L76.3984 126.737L63.3763 131.377L62.893 130.02ZM66.3697 122.259L68.02 121.671L70.1145 127.549C71.2825 130.827 71.6042 134.662 65.6293 139.058C65.2889 138.746 64.6273 138.32 64.1447 138.109C69.9466 134.157 69.4227 130.827 68.4561 128.114L66.3697 122.259ZM71.6216 130.706C73.4495 132.475 76.3453 133.023 79.7264 132.43C79.4548 132.883 79.2363 133.7 79.1406 134.218C75.5515 134.656 72.4896 133.786 70.3569 131.59L71.6216 130.706ZM61.556 117.044L63.1386 116.48L64.9269 121.499L63.3444 122.063L61.556 117.044ZM66.8915 115.143L68.474 114.579L70.2623 119.598L68.6798 120.162L66.8915 115.143ZM53.5404 121.505L54.0469 119.924C55.6435 120.043 57.679 120.464 58.7748 120.965L58.2714 122.699C57.1902 122.167 55.1305 121.678 53.5404 121.505ZM54.5399 128.028L55.0302 126.401C56.6107 126.475 58.6446 126.821 59.7695 127.261L59.2742 129.017C58.1864 128.538 56.159 128.139 54.5399 128.028ZM59.3956 139.725C59.8604 137.598 60.2973 134.104 60.4867 131.132L62.1831 131.675C62.0422 134.425 61.6847 137.712 61.2808 140.225L59.3956 139.725ZM88.1904 128.93L85.0931 130.034L79.4542 114.208L82.5515 113.105L84.8231 119.48L88.4404 118.191L86.1687 111.816L89.2659 110.712L94.9049 126.537L91.8076 127.641L89.4715 121.085L85.8542 122.374L88.1904 128.93ZM103.818 123.361L102.45 121.021L98.8775 122.294L99.2969 124.972L96.2223 126.068L93.6354 109.155L98.3152 107.488L106.848 122.282L103.818 123.361ZM96.9208 111.297L97.916 116.878L98.3773 119.746L101.203 118.739L99.7247 116.234L96.966 111.281L96.9208 111.297ZM115.218 119.299L107.873 112.057L107.776 112.142L108.862 114.762L111.013 120.798L108.164 121.813L102.526 105.987L104.809 105.174L112.207 112.78L112.304 112.694L111.064 110.002L108.833 103.74L111.682 102.725L117.321 118.55L115.218 119.299Z" fill="white" fill-opacity="0.2"/>
<path d="M270.719 37.9069L281.887 33.9275L282.459 35.5326L271.291 39.5121L270.719 37.9069ZM273.673 38.3321C278.038 45.3628 283.68 50.257 290.785 50.6044C290.514 51.0579 290.25 51.8907 290.138 52.3636C282.695 51.7803 277.027 46.7424 272.249 39.1963L273.673 38.3321ZM281.503 34.0644L281.774 33.9677L282.013 33.7806L283.205 33.7638C285.392 44.908 282.341 52.2885 276.719 57.2472C276.362 56.8901 275.722 56.3795 275.239 56.1693C280.622 51.7545 283.562 44.4902 281.632 34.4261L281.503 34.0644ZM264.573 39.893L265.014 38.4113C266.731 38.5127 268.939 38.8468 270.179 39.3224L269.75 40.9785C268.556 40.4868 266.33 40.0315 264.573 39.893ZM265.642 46.4677L266.044 44.9488C267.708 45.0437 269.916 45.3779 271.132 45.7856L270.756 47.4481C269.578 47.0017 267.345 46.5997 265.642 46.4677ZM270.438 57.8544C271.047 55.7012 271.747 52.0887 272.117 49.0523L273.657 49.7266C273.313 52.5499 272.76 55.9317 272.175 58.5095L270.438 57.8544ZM295.785 29.2303L310.344 24.0425L310.852 25.4668L296.292 30.6546L295.785 29.2303ZM300.136 42.2279L315.08 36.9032L315.571 38.2822L300.627 43.607L300.136 42.2279ZM300.281 33.0549L301.127 35.4287L309.922 32.2951L309.076 29.9213L300.281 33.0549ZM298.316 32.3286L310.23 28.0833L311.986 33.0118L300.072 37.2571L298.316 32.3286ZM300.069 38.9651L313.091 34.3251L313.574 35.6816L300.552 40.3216L300.069 38.9651ZM303.545 31.204L305.196 30.6159L307.29 36.4939C308.458 39.772 308.78 43.6065 302.805 48.003C302.465 47.6912 301.803 47.2645 301.321 47.0543C307.122 43.1016 306.599 39.7723 305.632 37.0593L303.545 31.204ZM308.797 39.6512C310.625 41.4203 313.521 41.9681 316.902 41.3748C316.631 41.8283 316.412 42.645 316.316 43.1632C312.727 43.6013 309.665 42.7305 307.533 40.535L308.797 39.6512ZM298.732 25.9891L300.314 25.4252L302.103 30.4441L300.52 31.008L298.732 25.9891ZM304.067 24.088L305.65 23.5241L307.438 28.543L305.856 29.1069L304.067 24.088ZM290.716 30.4504L291.223 28.8686C292.819 28.9876 294.855 29.4088 295.951 29.9101L295.447 31.6436C294.366 31.1117 292.306 30.6226 290.716 30.4504ZM291.716 36.9733L292.206 35.3463C293.787 35.4201 295.82 35.7655 296.945 36.2054L296.45 37.9616C295.362 37.4829 293.335 37.0843 291.716 36.9733ZM296.571 48.6701C297.036 46.5426 297.473 43.0493 297.663 40.0773L299.359 40.6194C299.218 43.3703 298.86 46.6569 298.457 49.1703L296.571 48.6701ZM325.366 37.8748L322.269 38.9785L316.63 23.1531L319.727 22.0495L321.999 28.4248L325.616 27.1359L323.345 20.7606L326.442 19.657L332.081 35.4823L328.983 36.5859L326.647 30.0297L323.03 31.3186L325.366 37.8748ZM340.994 32.3062L339.625 29.9659L336.053 31.2387L336.473 33.9173L333.398 35.0129L330.811 18.1L335.491 16.4325L344.024 31.2268L340.994 32.3062ZM334.097 20.2415L335.092 25.8233L335.553 28.6908L338.379 27.6839L336.901 25.1788L334.142 20.2254L334.097 20.2415ZM352.394 28.2443L345.049 21.0015L344.952 21.087L346.038 23.7064L348.189 29.7427L345.34 30.7577L339.701 14.9323L341.985 14.1187L349.383 21.7247L349.48 21.6392L348.24 18.9471L346.009 12.6848L348.857 11.6698L354.496 27.4952L352.394 28.2443ZM282.131 69.9345L293.3 65.955L293.871 67.5602L282.703 71.5396L282.131 69.9345ZM285.085 70.3596C289.45 77.3903 295.093 82.2845 302.197 82.632C301.926 83.0854 301.662 83.9183 301.55 84.3912C294.107 83.8078 288.439 78.7699 283.661 71.2239L285.085 70.3596ZM292.915 66.092L293.186 65.9953L293.426 65.8082L294.617 65.7913C296.804 76.9356 293.753 84.3161 288.131 89.2747C287.774 88.9177 287.134 88.407 286.651 88.1968C292.034 83.7821 294.974 76.5177 293.044 66.4537L292.915 66.092ZM275.985 71.9206L276.426 70.4389C278.143 70.5402 280.352 70.8744 281.591 71.3499L281.162 73.006C279.968 72.5144 277.742 72.0591 275.985 71.9206ZM277.054 78.4953L277.456 76.9764C279.12 77.0712 281.328 77.4054 282.544 77.8131L282.168 79.4757C280.99 79.0293 278.757 78.6273 277.054 78.4953ZM281.85 89.882C282.459 87.7288 283.159 84.1163 283.529 81.0798L285.069 81.7541C284.725 84.5775 284.172 87.9593 283.587 90.5371L281.85 89.882ZM307.197 61.2579L321.756 56.0701L322.264 57.4944L307.704 62.6822L307.197 61.2579ZM311.548 74.2555L326.492 68.9307L326.983 70.3098L312.039 75.6345L311.548 74.2555ZM311.693 65.0825L312.539 67.4563L321.334 64.3227L320.488 61.9489L311.693 65.0825ZM309.728 64.3562L321.642 60.1109L323.398 65.0394L311.484 69.2846L309.728 64.3562ZM311.481 70.9927L324.503 66.3527L324.986 67.7091L311.964 72.3492L311.481 70.9927ZM314.958 63.2315L316.608 62.6435L318.702 68.5215C319.87 71.7996 320.192 75.634 314.217 80.0306C313.877 79.7187 313.215 79.2921 312.733 79.0818C318.535 75.1291 318.011 71.7998 317.044 69.0869L314.958 63.2315ZM320.21 71.6787C322.037 73.4479 324.933 73.9956 328.314 73.4024C328.043 73.8558 327.824 74.6726 327.729 75.1907C324.139 75.6288 321.077 74.7581 318.945 72.5625L320.21 71.6787ZM310.144 58.0167L311.726 57.4528L313.515 62.4717L311.932 63.0356L310.144 58.0167ZM315.479 56.1155L317.062 55.5517L318.85 60.5706L317.268 61.1345L315.479 56.1155ZM302.128 62.4779L302.635 60.8962C304.231 61.0152 306.267 61.4364 307.363 61.9377L306.859 63.6712C305.778 63.1393 303.718 62.6502 302.128 62.4779ZM303.128 69.0009L303.618 67.3739C305.199 67.4477 307.232 67.7931 308.357 68.233L307.862 69.9891C306.774 69.5105 304.747 69.1118 303.128 69.0009ZM307.983 80.6976C308.448 78.5702 308.885 75.0769 309.075 72.1049L310.771 72.647C310.63 75.3978 310.273 78.6845 309.869 81.1979L307.983 80.6976ZM336.778 69.9024L333.681 71.006L328.042 55.1806L331.139 54.077L333.411 60.4524L337.028 59.1635L334.757 52.7881L337.854 51.6845L343.493 67.5099L340.396 68.6135L338.059 62.0573L334.442 63.3462L336.778 69.9024ZM352.406 64.3338L351.037 61.9935L347.465 63.2663L347.885 65.9449L344.81 67.0405L342.223 50.1276L346.903 48.4601L355.436 63.2543L352.406 64.3338ZM345.509 52.2691L346.504 57.8508L346.965 60.7184L349.791 59.7114L348.313 57.2064L345.554 52.253L345.509 52.2691ZM363.806 60.2719L356.461 53.0291L356.364 53.1146L357.45 55.734L359.601 61.7702L356.752 62.7852L351.113 46.9598L353.397 46.1462L360.795 53.7523L360.892 53.6668L359.652 50.9747L357.421 44.7123L360.27 43.6973L365.908 59.5227L363.806 60.2719ZM293.543 101.962L304.712 97.9826L305.284 99.5877L294.115 103.567L293.543 101.962ZM296.497 102.387C300.863 109.418 306.505 114.312 313.609 114.66C313.338 115.113 313.074 115.946 312.962 116.419C305.519 115.835 299.851 110.797 295.073 103.251L296.497 102.387ZM304.327 98.1195L304.599 98.0229L304.838 97.8358L306.029 97.8189C308.217 108.963 305.165 116.344 299.543 121.302C299.186 120.945 298.546 120.435 298.063 120.224C303.446 115.81 306.386 108.545 304.456 98.4812L304.327 98.1195ZM287.397 103.948L287.838 102.466C289.555 102.568 291.764 102.902 293.003 103.377L292.574 105.034C291.38 104.542 289.154 104.087 287.397 103.948ZM288.466 110.523L288.868 109.004C290.532 109.099 292.74 109.433 293.956 109.841L293.58 111.503C292.402 111.057 290.169 110.655 288.466 110.523ZM293.262 121.91C293.871 119.756 294.571 116.144 294.941 113.107L296.481 113.782C296.137 116.605 295.584 119.987 294.999 122.565L293.262 121.91ZM318.609 93.2854L333.168 88.0976L333.676 89.5219L319.116 94.7097L318.609 93.2854ZM322.96 106.283L337.904 100.958L338.395 102.337L323.451 107.662L322.96 106.283ZM323.106 97.11L323.951 99.4838L332.746 96.3502L331.9 93.9764L323.106 97.11ZM321.14 96.3837L333.054 92.1384L334.81 97.0669L322.896 101.312L321.14 96.3837ZM322.893 103.02L335.915 98.3802L336.398 99.7367L323.376 104.377L322.893 103.02ZM326.37 95.2591L328.02 94.671L330.114 100.549C331.283 103.827 331.604 107.662 325.629 112.058C325.289 111.746 324.627 111.32 324.145 111.109C329.947 107.157 329.423 103.827 328.456 101.114L326.37 95.2591ZM331.622 103.706C333.449 105.475 336.345 106.023 339.726 105.43C339.455 105.883 339.236 106.7 339.141 107.218C335.551 107.656 332.49 106.786 330.357 104.59L331.622 103.706ZM321.556 90.0442L323.139 89.4803L324.927 94.4992L323.344 95.0631L321.556 90.0442ZM326.891 88.1431L328.474 87.5792L330.262 92.5981L328.68 93.162L326.891 88.1431ZM313.54 94.5055L314.047 92.9237C315.643 93.0427 317.679 93.464 318.775 93.9652L318.271 95.6987C317.19 95.1668 315.131 94.6778 313.54 94.5055ZM314.54 101.028L315.03 99.4015C316.611 99.4753 318.645 99.8206 319.77 100.261L319.274 102.017C318.186 101.538 316.159 101.139 314.54 101.028ZM319.396 112.725C319.86 110.598 320.297 107.104 320.487 104.132L322.183 104.675C322.042 107.425 321.685 110.712 321.281 113.225L319.396 112.725ZM348.19 101.93L345.093 103.034L339.454 87.2082L342.551 86.1046L344.823 92.4799L348.44 91.191L346.169 84.8157L349.266 83.7121L354.905 99.5374L351.808 100.641L349.471 94.0848L345.854 95.3737L348.19 101.93ZM363.818 96.3613L362.45 94.0211L358.878 95.2938L359.297 97.9725L356.222 99.068L353.635 82.1551L358.315 80.4876L366.848 95.2819L363.818 96.3613ZM356.921 84.2966L357.916 89.8784L358.377 92.7459L361.203 91.739L359.725 89.2339L356.966 84.2805L356.921 84.2966ZM375.218 92.2994L367.873 85.0567L367.776 85.1422L368.862 87.7615L371.013 93.7978L368.164 94.8128L362.526 78.9874L364.809 78.1738L372.207 85.7798L372.304 85.6944L371.064 83.0022L368.833 76.7399L371.682 75.7249L377.321 91.5503L375.218 92.2994Z" fill="white" fill-opacity="0.2"/>
<path d="M172.719 303.907L183.887 299.927L184.459 301.533L173.291 305.512L172.719 303.907ZM175.673 304.332C180.038 311.363 185.68 316.257 192.785 316.604C192.514 317.058 192.25 317.891 192.138 318.364C184.695 317.78 179.027 312.742 174.249 305.196L175.673 304.332ZM183.503 300.064L183.774 299.968L184.013 299.781L185.205 299.764C187.392 310.908 184.341 318.289 178.719 323.247C178.362 322.89 177.722 322.379 177.239 322.169C182.622 317.755 185.562 310.49 183.632 300.426L183.503 300.064ZM166.573 305.893L167.014 304.411C168.731 304.513 170.939 304.847 172.179 305.322L171.75 306.978C170.556 306.487 168.33 306.032 166.573 305.893ZM167.642 312.468L168.044 310.949C169.708 311.044 171.916 311.378 173.132 311.786L172.756 313.448C171.578 313.002 169.345 312.6 167.642 312.468ZM172.438 323.854C173.047 321.701 173.747 318.089 174.117 315.052L175.657 315.727C175.313 318.55 174.76 321.932 174.175 324.51L172.438 323.854ZM197.785 295.23L212.344 290.043L212.852 291.467L198.292 296.655L197.785 295.23ZM202.136 308.228L217.08 302.903L217.571 304.282L202.627 309.607L202.136 308.228ZM202.281 299.055L203.127 301.429L211.922 298.295L211.076 295.921L202.281 299.055ZM200.316 298.329L212.23 294.083L213.986 299.012L202.072 303.257L200.316 298.329ZM202.069 304.965L215.091 300.325L215.574 301.682L202.552 306.322L202.069 304.965ZM205.545 297.204L207.196 296.616L209.29 302.494C210.458 305.772 210.78 309.606 204.805 314.003C204.465 313.691 203.803 313.264 203.321 313.054C209.122 309.102 208.599 305.772 207.632 303.059L205.545 297.204ZM210.797 305.651C212.625 307.42 215.521 307.968 218.902 307.375C218.631 307.828 218.412 308.645 218.316 309.163C214.727 309.601 211.665 308.73 209.533 306.535L210.797 305.651ZM200.732 291.989L202.314 291.425L204.103 296.444L202.52 297.008L200.732 291.989ZM206.067 290.088L207.65 289.524L209.438 294.543L207.856 295.107L206.067 290.088ZM192.716 296.45L193.223 294.869C194.819 294.988 196.855 295.409 197.951 295.91L197.447 297.644C196.366 297.112 194.306 296.623 192.716 296.45ZM193.716 302.973L194.206 301.346C195.787 301.42 197.82 301.765 198.945 302.205L198.45 303.962C197.362 303.483 195.335 303.084 193.716 302.973ZM198.571 314.67C199.036 312.543 199.473 309.049 199.663 306.077L201.359 306.619C201.218 309.37 200.86 312.657 200.457 315.17L198.571 314.67ZM227.366 303.875L224.269 304.978L218.63 289.153L221.727 288.049L223.999 294.425L227.616 293.136L225.345 286.761L228.442 285.657L234.081 301.482L230.983 302.586L228.647 296.03L225.03 297.319L227.366 303.875ZM242.994 298.306L241.625 295.966L238.053 297.239L238.473 299.917L235.398 301.013L232.811 284.1L237.491 282.433L246.024 297.227L242.994 298.306ZM236.097 286.242L237.092 291.823L237.553 294.691L240.379 293.684L238.901 291.179L236.142 286.225L236.097 286.242ZM254.394 294.244L247.049 287.002L246.952 287.087L248.038 289.706L250.189 295.743L247.34 296.758L241.701 280.932L243.985 280.119L251.383 287.725L251.48 287.639L250.24 284.947L248.009 278.685L250.857 277.67L256.496 293.495L254.394 294.244ZM184.131 335.934L195.3 331.955L195.871 333.56L184.703 337.54L184.131 335.934ZM187.085 336.36C191.45 343.39 197.093 348.285 204.197 348.632C203.926 349.085 203.662 349.918 203.55 350.391C196.107 349.808 190.439 344.77 185.661 337.224L187.085 336.36ZM194.915 332.092L195.186 331.995L195.426 331.808L196.617 331.791C198.804 342.936 195.753 350.316 190.131 355.275C189.774 354.918 189.134 354.407 188.651 354.197C194.034 349.782 196.974 342.518 195.044 332.454L194.915 332.092ZM177.985 337.921L178.426 336.439C180.143 336.54 182.352 336.874 183.591 337.35L183.162 339.006C181.968 338.514 179.742 338.059 177.985 337.921ZM179.054 344.495L179.456 342.976C181.12 343.071 183.328 343.405 184.544 343.813L184.168 345.476C182.99 345.029 180.757 344.627 179.054 344.495ZM183.85 355.882C184.459 353.729 185.159 350.116 185.529 347.08L187.069 347.754C186.725 350.578 186.172 353.959 185.587 356.537L183.85 355.882ZM209.197 327.258L223.756 322.07L224.264 323.494L209.704 328.682L209.197 327.258ZM213.548 340.255L228.492 334.931L228.983 336.31L214.039 341.635L213.548 340.255ZM213.693 331.082L214.539 333.456L223.334 330.323L222.488 327.949L213.693 331.082ZM211.728 330.356L223.642 326.111L225.398 331.039L213.484 335.285L211.728 330.356ZM213.481 336.993L226.503 332.353L226.986 333.709L213.964 338.349L213.481 336.993ZM216.958 329.232L218.608 328.643L220.702 334.521C221.87 337.8 222.192 341.634 216.217 346.031C215.877 345.719 215.215 345.292 214.733 345.082C220.535 341.129 220.011 337.8 219.044 335.087L216.958 329.232ZM222.21 337.679C224.037 339.448 226.933 339.996 230.314 339.402C230.043 339.856 229.824 340.673 229.729 341.191C226.139 341.629 223.077 340.758 220.945 338.563L222.21 337.679ZM212.144 324.017L213.726 323.453L215.515 328.472L213.932 329.036L212.144 324.017ZM217.479 322.116L219.062 321.552L220.85 326.571L219.268 327.134L217.479 322.116ZM204.128 328.478L204.635 326.896C206.231 327.015 208.267 327.436 209.363 327.938L208.859 329.671C207.778 329.139 205.718 328.65 204.128 328.478ZM205.128 335.001L205.618 333.374C207.199 333.448 209.232 333.793 210.357 334.233L209.862 335.989C208.774 335.51 206.747 335.112 205.128 335.001ZM209.983 346.698C210.448 344.57 210.885 341.077 211.075 338.105L212.771 338.647C212.63 341.398 212.273 344.685 211.869 347.198L209.983 346.698ZM238.778 335.902L235.681 337.006L230.042 321.181L233.139 320.077L235.411 326.452L239.028 325.163L236.757 318.788L239.854 317.685L245.493 333.51L242.396 334.614L240.059 328.057L236.442 329.346L238.778 335.902ZM254.406 330.334L253.037 327.993L249.465 329.266L249.885 331.945L246.81 333.04L244.223 316.128L248.903 314.46L257.436 329.254L254.406 330.334ZM247.509 318.269L248.504 323.851L248.965 326.718L251.791 325.711L250.313 323.206L247.554 318.253L247.509 318.269ZM265.806 326.272L258.461 319.029L258.364 319.115L259.45 321.734L261.601 327.77L258.752 328.785L253.113 312.96L255.397 312.146L262.795 319.752L262.892 319.667L261.652 316.975L259.421 310.712L262.27 309.697L267.908 325.523L265.806 326.272ZM195.543 367.962L206.712 363.983L207.284 365.588L196.115 369.567L195.543 367.962ZM198.497 368.387C202.863 375.418 208.505 380.312 215.609 380.66C215.338 381.113 215.074 381.946 214.962 382.419C207.519 381.835 201.851 376.797 197.073 369.251L198.497 368.387ZM206.327 364.12L206.599 364.023L206.838 363.836L208.029 363.819C210.217 374.963 207.165 382.344 201.543 387.302C201.186 386.945 200.546 386.435 200.063 386.224C205.446 381.81 208.386 374.545 206.456 364.481L206.327 364.12ZM189.397 369.948L189.838 368.466C191.555 368.568 193.764 368.902 195.003 369.377L194.574 371.034C193.38 370.542 191.154 370.087 189.397 369.948ZM190.466 376.523L190.868 375.004C192.532 375.099 194.74 375.433 195.956 375.841L195.58 377.503C194.402 377.057 192.169 376.655 190.466 376.523ZM195.262 387.91C195.871 385.756 196.571 382.144 196.941 379.107L198.481 379.782C198.137 382.605 197.584 385.987 196.999 388.565L195.262 387.91ZM220.609 359.285L235.168 354.098L235.676 355.522L221.116 360.71L220.609 359.285ZM224.96 372.283L239.904 366.958L240.395 368.337L225.451 373.662L224.96 372.283ZM225.106 363.11L225.951 365.484L234.746 362.35L233.9 359.976L225.106 363.11ZM223.14 362.384L235.054 358.138L236.81 363.067L224.896 367.312L223.14 362.384ZM224.893 369.02L237.915 364.38L238.398 365.737L225.376 370.377L224.893 369.02ZM228.37 361.259L230.02 360.671L232.114 366.549C233.283 369.827 233.604 373.662 227.629 378.058C227.289 377.746 226.627 377.32 226.145 377.109C231.947 373.157 231.423 369.827 230.456 367.114L228.37 361.259ZM233.622 369.706C235.449 371.475 238.345 372.023 241.726 371.43C241.455 371.883 241.236 372.7 241.141 373.218C237.551 373.656 234.49 372.786 232.357 370.59L233.622 369.706ZM223.556 356.044L225.139 355.48L226.927 360.499L225.344 361.063L223.556 356.044ZM228.891 354.143L230.474 353.579L232.262 358.598L230.68 359.162L228.891 354.143ZM215.54 360.505L216.047 358.924C217.643 359.043 219.679 359.464 220.775 359.965L220.271 361.699C219.19 361.167 217.131 360.678 215.54 360.505ZM216.54 367.028L217.03 365.401C218.611 365.475 220.645 365.821 221.77 366.261L221.274 368.017C220.186 367.538 218.159 367.139 216.54 367.028ZM221.396 378.725C221.86 376.598 222.297 373.104 222.487 370.132L224.183 370.675C224.042 373.425 223.685 376.712 223.281 379.225L221.396 378.725ZM250.19 367.93L247.093 369.034L241.454 353.208L244.551 352.105L246.823 358.48L250.44 357.191L248.169 350.816L251.266 349.712L256.905 365.537L253.808 366.641L251.471 360.085L247.854 361.374L250.19 367.93ZM265.818 362.361L264.45 360.021L260.878 361.294L261.297 363.972L258.222 365.068L255.635 348.155L260.315 346.488L268.848 361.282L265.818 362.361ZM258.921 350.297L259.916 355.878L260.377 358.746L263.203 357.739L261.725 355.234L258.966 350.281L258.921 350.297ZM277.218 358.299L269.873 351.057L269.776 351.142L270.862 353.762L273.013 359.798L270.164 360.813L264.526 344.987L266.809 344.174L274.207 351.78L274.304 351.694L273.064 349.002L270.833 342.74L273.682 341.725L279.321 357.55L277.218 358.299Z" fill="white" fill-opacity="0.2"/>
<path d="M151.719 49.9069L162.887 45.9275L163.459 47.5326L152.291 51.5121L151.719 49.9069ZM154.673 50.3321C159.038 57.3628 164.68 62.257 171.785 62.6044C171.514 63.0579 171.25 63.8907 171.138 64.3636C163.695 63.7803 158.027 58.7424 153.249 51.1963L154.673 50.3321ZM162.503 46.0644L162.774 45.9677L163.013 45.7806L164.205 45.7638C166.392 56.908 163.341 64.2885 157.719 69.2472C157.362 68.8901 156.722 68.3795 156.239 68.1693C161.622 63.7545 164.562 56.4902 162.632 46.4261L162.503 46.0644ZM145.573 51.893L146.014 50.4113C147.731 50.5127 149.939 50.8468 151.179 51.3224L150.75 52.9785C149.556 52.4868 147.33 52.0315 145.573 51.893ZM146.642 58.4677L147.044 56.9488C148.708 57.0437 150.916 57.3779 152.132 57.7856L151.756 59.4481C150.578 59.0017 148.345 58.5997 146.642 58.4677ZM151.438 69.8544C152.047 67.7012 152.747 64.0887 153.117 61.0523L154.657 61.7266C154.313 64.5499 153.76 67.9317 153.175 70.5095L151.438 69.8544ZM176.785 41.2303L191.344 36.0425L191.852 37.4668L177.292 42.6546L176.785 41.2303ZM181.136 54.2279L196.08 48.9032L196.571 50.2822L181.627 55.607L181.136 54.2279ZM181.281 45.0549L182.127 47.4287L190.922 44.2951L190.076 41.9213L181.281 45.0549ZM179.316 44.3286L191.23 40.0833L192.986 45.0118L181.072 49.2571L179.316 44.3286ZM181.069 50.9651L194.091 46.3251L194.574 47.6816L181.552 52.3216L181.069 50.9651ZM184.545 43.204L186.196 42.6159L188.29 48.4939C189.458 51.772 189.78 55.6065 183.805 60.003C183.465 59.6912 182.803 59.2645 182.321 59.0543C188.122 55.1016 187.599 51.7723 186.632 49.0593L184.545 43.204ZM189.797 51.6512C191.625 53.4203 194.521 53.9681 197.902 53.3748C197.631 53.8283 197.412 54.645 197.316 55.1632C193.727 55.6013 190.665 54.7305 188.533 52.535L189.797 51.6512ZM179.732 37.9891L181.314 37.4252L183.103 42.4441L181.52 43.008L179.732 37.9891ZM185.067 36.088L186.65 35.5241L188.438 40.543L186.856 41.1069L185.067 36.088ZM171.716 42.4504L172.223 40.8686C173.819 40.9876 175.855 41.4088 176.951 41.9101L176.447 43.6436C175.366 43.1117 173.306 42.6226 171.716 42.4504ZM172.716 48.9733L173.206 47.3463C174.787 47.4201 176.82 47.7655 177.945 48.2054L177.45 49.9616C176.362 49.4829 174.335 49.0843 172.716 48.9733ZM177.571 60.6701C178.036 58.5426 178.473 55.0493 178.663 52.0773L180.359 52.6194C180.218 55.3703 179.86 58.6569 179.457 61.1703L177.571 60.6701ZM206.366 49.8748L203.269 50.9785L197.63 35.1531L200.727 34.0495L202.999 40.4248L206.616 39.1359L204.345 32.7606L207.442 31.657L213.081 47.4823L209.983 48.5859L207.647 42.0297L204.03 43.3186L206.366 49.8748ZM221.994 44.3062L220.625 41.9659L217.053 43.2387L217.473 45.9173L214.398 47.0129L211.811 30.1L216.491 28.4325L225.024 43.2268L221.994 44.3062ZM215.097 32.2415L216.092 37.8233L216.553 40.6908L219.379 39.6839L217.901 37.1788L215.142 32.2254L215.097 32.2415ZM233.394 40.2443L226.049 33.0015L225.952 33.087L227.038 35.7064L229.189 41.7427L226.34 42.7577L220.701 26.9323L222.985 26.1187L230.383 33.7247L230.48 33.6392L229.24 30.9471L227.009 24.6848L229.857 23.6698L235.496 39.4952L233.394 40.2443ZM163.131 81.9345L174.3 77.955L174.871 79.5602L163.703 83.5396L163.131 81.9345ZM166.085 82.3596C170.45 89.3903 176.093 94.2845 183.197 94.632C182.926 95.0854 182.662 95.9183 182.55 96.3912C175.107 95.8078 169.439 90.7699 164.661 83.2239L166.085 82.3596ZM173.915 78.092L174.186 77.9953L174.426 77.8082L175.617 77.7913C177.804 88.9356 174.753 96.3161 169.131 101.275C168.774 100.918 168.134 100.407 167.651 100.197C173.034 95.7821 175.974 88.5177 174.044 78.4537L173.915 78.092ZM156.985 83.9206L157.426 82.4389C159.143 82.5402 161.352 82.8744 162.591 83.3499L162.162 85.006C160.968 84.5144 158.742 84.0591 156.985 83.9206ZM158.054 90.4953L158.456 88.9764C160.12 89.0712 162.328 89.4054 163.544 89.8131L163.168 91.4757C161.99 91.0293 159.757 90.6273 158.054 90.4953ZM162.85 101.882C163.459 99.7288 164.159 96.1163 164.529 93.0798L166.069 93.7541C165.725 96.5775 165.172 99.9593 164.587 102.537L162.85 101.882ZM188.197 73.2579L202.756 68.0701L203.264 69.4944L188.704 74.6822L188.197 73.2579ZM192.548 86.2555L207.492 80.9307L207.983 82.3098L193.039 87.6345L192.548 86.2555ZM192.693 77.0825L193.539 79.4563L202.334 76.3227L201.488 73.9489L192.693 77.0825ZM190.728 76.3562L202.642 72.1109L204.398 77.0394L192.484 81.2846L190.728 76.3562ZM192.481 82.9927L205.503 78.3527L205.986 79.7091L192.964 84.3492L192.481 82.9927ZM195.958 75.2315L197.608 74.6435L199.702 80.5215C200.87 83.7996 201.192 87.634 195.217 92.0306C194.877 91.7187 194.215 91.2921 193.733 91.0818C199.535 87.1291 199.011 83.7998 198.044 81.0869L195.958 75.2315ZM201.21 83.6787C203.037 85.4479 205.933 85.9956 209.314 85.4024C209.043 85.8558 208.824 86.6726 208.729 87.1907C205.139 87.6288 202.077 86.7581 199.945 84.5625L201.21 83.6787ZM191.144 70.0167L192.726 69.4528L194.515 74.4717L192.932 75.0356L191.144 70.0167ZM196.479 68.1155L198.062 67.5517L199.85 72.5706L198.268 73.1345L196.479 68.1155ZM183.128 74.4779L183.635 72.8962C185.231 73.0152 187.267 73.4364 188.363 73.9377L187.859 75.6712C186.778 75.1393 184.718 74.6502 183.128 74.4779ZM184.128 81.0009L184.618 79.3739C186.199 79.4477 188.232 79.7931 189.357 80.233L188.862 81.9891C187.774 81.5105 185.747 81.1118 184.128 81.0009ZM188.983 92.6976C189.448 90.5702 189.885 87.0769 190.075 84.1049L191.771 84.647C191.63 87.3978 191.273 90.6845 190.869 93.1979L188.983 92.6976ZM217.778 81.9024L214.681 83.006L209.042 67.1806L212.139 66.077L214.411 72.4524L218.028 71.1635L215.757 64.7881L218.854 63.6845L224.493 79.5099L221.396 80.6135L219.059 74.0573L215.442 75.3462L217.778 81.9024ZM233.406 76.3338L232.037 73.9935L228.465 75.2663L228.885 77.9449L225.81 79.0405L223.223 62.1276L227.903 60.4601L236.436 75.2543L233.406 76.3338ZM226.509 64.2691L227.504 69.8508L227.965 72.7184L230.791 71.7114L229.313 69.2064L226.554 64.253L226.509 64.2691ZM244.806 72.2719L237.461 65.0291L237.364 65.1146L238.45 67.734L240.601 73.7702L237.752 74.7852L232.113 58.9598L234.397 58.1462L241.795 65.7523L241.892 65.6668L240.652 62.9747L238.421 56.7123L241.27 55.6973L246.908 71.5227L244.806 72.2719ZM174.543 113.962L185.712 109.983L186.284 111.588L175.115 115.567L174.543 113.962ZM177.497 114.387C181.863 121.418 187.505 126.312 194.609 126.66C194.338 127.113 194.074 127.946 193.962 128.419C186.519 127.835 180.851 122.797 176.073 115.251L177.497 114.387ZM185.327 110.12L185.599 110.023L185.838 109.836L187.029 109.819C189.217 120.963 186.165 128.344 180.543 133.302C180.186 132.945 179.546 132.435 179.063 132.224C184.446 127.81 187.386 120.545 185.456 110.481L185.327 110.12ZM168.397 115.948L168.838 114.466C170.555 114.568 172.764 114.902 174.003 115.377L173.574 117.034C172.38 116.542 170.154 116.087 168.397 115.948ZM169.466 122.523L169.868 121.004C171.532 121.099 173.74 121.433 174.956 121.841L174.58 123.503C173.402 123.057 171.169 122.655 169.466 122.523ZM174.262 133.91C174.871 131.756 175.571 128.144 175.941 125.107L177.481 125.782C177.137 128.605 176.584 131.987 175.999 134.565L174.262 133.91ZM199.609 105.285L214.168 100.098L214.676 101.522L200.116 106.71L199.609 105.285ZM203.96 118.283L218.904 112.958L219.395 114.337L204.451 119.662L203.96 118.283ZM204.106 109.11L204.951 111.484L213.746 108.35L212.9 105.976L204.106 109.11ZM202.14 108.384L214.054 104.138L215.81 109.067L203.896 113.312L202.14 108.384ZM203.893 115.02L216.915 110.38L217.398 111.737L204.376 116.377L203.893 115.02ZM207.37 107.259L209.02 106.671L211.114 112.549C212.283 115.827 212.604 119.662 206.629 124.058C206.289 123.746 205.627 123.32 205.145 123.109C210.947 119.157 210.423 115.827 209.456 113.114L207.37 107.259ZM212.622 115.706C214.449 117.475 217.345 118.023 220.726 117.43C220.455 117.883 220.236 118.7 220.141 119.218C216.551 119.656 213.49 118.786 211.357 116.59L212.622 115.706ZM202.556 102.044L204.139 101.48L205.927 106.499L204.344 107.063L202.556 102.044ZM207.891 100.143L209.474 99.5792L211.262 104.598L209.68 105.162L207.891 100.143ZM194.54 106.505L195.047 104.924C196.643 105.043 198.679 105.464 199.775 105.965L199.271 107.699C198.19 107.167 196.131 106.678 194.54 106.505ZM195.54 113.028L196.03 111.401C197.611 111.475 199.645 111.821 200.77 112.261L200.274 114.017C199.186 113.538 197.159 113.139 195.54 113.028ZM200.396 124.725C200.86 122.598 201.297 119.104 201.487 116.132L203.183 116.675C203.042 119.425 202.685 122.712 202.281 125.225L200.396 124.725ZM229.19 113.93L226.093 115.034L220.454 99.2082L223.551 98.1046L225.823 104.48L229.44 103.191L227.169 96.8157L230.266 95.7121L235.905 111.537L232.808 112.641L230.471 106.085L226.854 107.374L229.19 113.93ZM244.818 108.361L243.45 106.021L239.878 107.294L240.297 109.972L237.222 111.068L234.635 94.1551L239.315 92.4876L247.848 107.282L244.818 108.361ZM237.921 96.2966L238.916 101.878L239.377 104.746L242.203 103.739L240.725 101.234L237.966 96.2805L237.921 96.2966ZM256.218 104.299L248.873 97.0567L248.776 97.1422L249.862 99.7615L252.013 105.798L249.164 106.813L243.526 90.9874L245.809 90.1738L253.207 97.7798L253.304 97.6944L252.064 95.0022L249.833 88.7399L252.682 87.7249L258.321 103.55L256.218 104.299Z" fill="white" fill-opacity="0.2"/>
<path d="M44.7192 291.907L55.8874 287.927L56.4594 289.533L45.2912 293.512L44.7192 291.907ZM47.6733 292.332C52.0384 299.363 57.6804 304.257 64.7852 304.604C64.5137 305.058 64.2499 305.891 64.1382 306.364C56.6945 305.78 51.0268 300.742 46.2488 293.196L47.6733 292.332ZM55.5031 288.064L55.7744 287.968L56.0135 287.781L57.2049 287.764C59.3924 298.908 56.3406 306.289 50.7188 311.247C50.3623 310.89 49.7218 310.379 49.2392 310.169C54.6216 305.755 57.562 298.49 55.632 288.426L55.5031 288.064ZM38.5733 293.893L39.0135 292.411C40.7312 292.513 42.9395 292.847 44.179 293.322L43.75 294.978C42.5557 294.487 40.3297 294.032 38.5733 293.893ZM39.6421 300.468L40.0436 298.949C41.708 299.044 43.9163 299.378 45.1316 299.786L44.7559 301.448C43.5777 301.002 41.3452 300.6 39.6421 300.468ZM44.4383 311.854C45.0469 309.701 45.747 306.089 46.1173 303.052L47.6569 303.727C47.3126 306.55 46.7596 309.932 46.1749 312.51L44.4383 311.854ZM69.7848 283.23L84.3442 278.043L84.8517 279.467L70.2923 284.655L69.7848 283.23ZM74.1359 296.228L89.0796 290.903L89.571 292.282L74.6273 297.607L74.1359 296.228ZM74.2814 287.055L75.1272 289.429L83.9216 286.295L83.0758 283.921L74.2814 287.055ZM72.3156 286.329L84.2298 282.083L85.986 287.012L74.0717 291.257L72.3156 286.329ZM74.0688 292.965L87.0909 288.325L87.5742 289.682L74.5522 294.322L74.0688 292.965ZM77.5455 285.204L79.1959 284.616L81.2903 290.494C82.4584 293.772 82.7801 297.606 76.8051 302.003C76.4647 301.691 75.8031 301.264 75.3206 301.054C81.1224 297.102 80.5986 293.772 79.6319 291.059L77.5455 285.204ZM82.7975 293.651C84.6253 295.42 87.5212 295.968 90.9022 295.375C90.6307 295.828 90.4121 296.645 90.3165 297.163C86.7273 297.601 83.6654 296.73 81.5327 294.535L82.7975 293.651ZM72.7319 279.989L74.3144 279.425L76.1028 284.444L74.5202 285.008L72.7319 279.989ZM78.0673 278.088L79.6498 277.524L81.4382 282.543L79.8556 283.107L78.0673 278.088ZM64.7163 284.45L65.2227 282.869C66.8193 282.988 68.8548 283.409 69.9506 283.91L69.4473 285.644C68.366 285.112 66.3064 284.623 64.7163 284.45ZM65.7157 290.973L66.206 289.346C67.7865 289.42 69.8204 289.765 70.9453 290.205L70.4501 291.962C69.3623 291.483 67.3349 291.084 65.7157 290.973ZM70.5714 302.67C71.0363 300.543 71.4731 297.049 71.6625 294.077L73.3589 294.619C73.2181 297.37 72.8605 300.657 72.4567 303.17L70.5714 302.67ZM99.3662 291.875L96.269 292.978L90.63 277.153L93.7273 276.049L95.999 282.425L99.6162 281.136L97.3445 274.761L100.442 273.657L106.081 289.482L102.983 290.586L100.647 284.03L97.0301 285.319L99.3662 291.875ZM114.994 286.306L113.625 283.966L110.053 285.239L110.473 287.917L107.398 289.013L104.811 272.1L109.491 270.433L118.024 285.227L114.994 286.306ZM108.097 274.242L109.092 279.823L109.553 282.691L112.379 281.684L110.901 279.179L108.142 274.225L108.097 274.242ZM126.394 282.244L119.049 275.002L118.952 275.087L120.038 277.706L122.189 283.743L119.34 284.758L113.701 268.932L115.985 268.119L123.383 275.725L123.48 275.639L122.24 272.947L120.009 266.685L122.857 265.67L128.496 281.495L126.394 282.244ZM56.1313 323.934L67.2995 319.955L67.8715 321.56L56.7033 325.54L56.1313 323.934ZM59.0854 324.36C63.4505 331.39 69.0925 336.285 76.1973 336.632C75.9258 337.085 75.662 337.918 75.5503 338.391C68.1066 337.808 62.4389 332.77 57.6608 325.224L59.0854 324.36ZM66.9152 320.092L67.1865 319.995L67.4256 319.808L68.617 319.791C70.8045 330.936 67.7527 338.316 62.1309 343.275C61.7744 342.918 61.1338 342.407 60.6513 342.197C66.0337 337.782 68.974 330.518 67.0441 320.454L66.9152 320.092ZM49.9854 325.921L50.4256 324.439C52.1433 324.54 54.3515 324.874 55.5911 325.35L55.162 327.006C53.9677 326.514 51.7418 326.059 49.9854 325.921ZM51.0542 332.495L51.4557 330.976C53.1201 331.071 55.3284 331.405 56.5437 331.813L56.168 333.476C54.9898 333.029 52.7573 332.627 51.0542 332.495ZM55.8504 343.882C56.459 341.729 57.159 338.116 57.5293 335.08L59.069 335.754C58.7247 338.578 58.1717 341.959 57.587 344.537L55.8504 343.882ZM81.1969 315.258L95.7563 310.07L96.2638 311.494L81.7044 316.682L81.1969 315.258ZM85.548 328.255L100.492 322.931L100.983 324.31L86.0393 329.635L85.548 328.255ZM85.6935 319.082L86.5393 321.456L95.3337 318.323L94.4879 315.949L85.6935 319.082ZM83.7277 318.356L95.6419 314.111L97.398 319.039L85.4838 323.285L83.7277 318.356ZM85.4809 324.993L98.5029 320.353L98.9863 321.709L85.9643 326.349L85.4809 324.993ZM88.9576 317.232L90.6079 316.643L92.7024 322.521C93.8704 325.8 94.1921 329.634 88.2172 334.031C87.8768 333.719 87.2152 333.292 86.7326 333.082C92.5345 329.129 92.0106 325.8 91.044 323.087L88.9576 317.232ZM94.2096 325.679C96.0374 327.448 98.9333 327.996 102.314 327.402C102.043 327.856 101.824 328.673 101.729 329.191C98.1394 329.629 95.0775 328.758 92.9448 326.563L94.2096 325.679ZM84.144 312.017L85.7265 311.453L87.5148 316.472L85.9323 317.036L84.144 312.017ZM89.4794 310.116L91.0619 309.552L92.8503 314.571L91.2677 315.134L89.4794 310.116ZM76.1284 316.478L76.6348 314.896C78.2314 315.015 80.2669 315.436 81.3627 315.938L80.8593 317.671C79.7781 317.139 77.7184 316.65 76.1284 316.478ZM77.1278 323.001L77.6181 321.374C79.1986 321.448 81.2325 321.793 82.3574 322.233L81.8621 323.989C80.7744 323.51 78.747 323.112 77.1278 323.001ZM81.9835 334.698C82.4484 332.57 82.8852 329.077 83.0746 326.105L84.771 326.647C84.6301 329.398 84.2726 332.685 83.8687 335.198L81.9835 334.698ZM110.778 323.902L107.681 325.006L102.042 309.181L105.139 308.077L107.411 314.452L111.028 313.163L108.757 306.788L111.854 305.685L117.493 321.51L114.396 322.614L112.059 316.057L108.442 317.346L110.778 323.902ZM126.406 318.334L125.037 315.993L121.465 317.266L121.885 319.945L118.81 321.04L116.223 304.128L120.903 302.46L129.436 317.254L126.406 318.334ZM119.509 306.269L120.504 311.851L120.965 314.718L123.791 313.711L122.313 311.206L119.554 306.253L119.509 306.269ZM137.806 314.272L130.461 307.029L130.364 307.115L131.45 309.734L133.601 315.77L130.752 316.785L125.113 300.96L127.397 300.146L134.795 307.752L134.892 307.667L133.652 304.975L131.421 298.712L134.27 297.697L139.908 313.523L137.806 314.272ZM67.5434 355.962L78.7116 351.983L79.2835 353.588L68.1153 357.567L67.5434 355.962ZM70.4975 356.387C74.8626 363.418 80.5046 368.312 87.6094 368.66C87.3378 369.113 87.0741 369.946 86.9623 370.419C79.5187 369.835 73.8509 364.797 69.0729 357.251L70.4975 356.387ZM78.3273 352.12L78.5986 352.023L78.8376 351.836L80.0291 351.819C82.2166 362.963 79.1648 370.344 73.543 375.302C73.1865 374.945 72.5459 374.435 72.0634 374.224C77.4458 369.81 80.3861 362.545 78.4562 352.481L78.3273 352.12ZM61.3975 357.948L61.8377 356.466C63.5554 356.568 65.7636 356.902 67.0032 357.377L66.5741 359.034C65.3798 358.542 63.1539 358.087 61.3975 357.948ZM62.4663 364.523L62.8678 363.004C64.5322 363.099 66.7404 363.433 67.9558 363.841L67.58 365.503C66.4018 365.057 64.1694 364.655 62.4663 364.523ZM67.2625 375.91C67.8711 373.756 68.5711 370.144 68.9414 367.107L70.4811 367.782C70.1368 370.605 69.5838 373.987 68.9991 376.565L67.2625 375.91ZM92.609 347.285L107.168 342.098L107.676 343.522L93.1165 348.71L92.609 347.285ZM96.96 360.283L111.904 354.958L112.395 356.337L97.4514 361.662L96.96 360.283ZM97.1056 351.11L97.9514 353.484L106.746 350.35L105.9 347.976L97.1056 351.11ZM95.1397 350.384L107.054 346.138L108.81 351.067L96.8959 355.312L95.1397 350.384ZM96.893 357.02L109.915 352.38L110.398 353.737L97.3763 358.377L96.893 357.02ZM100.37 349.259L102.02 348.671L104.114 354.549C105.283 357.827 105.604 361.662 99.6293 366.058C99.2889 365.746 98.6273 365.32 98.1447 365.109C103.947 361.157 103.423 357.827 102.456 355.114L100.37 349.259ZM105.622 357.706C107.449 359.475 110.345 360.023 113.726 359.43C113.455 359.883 113.236 360.7 113.141 361.218C109.551 361.656 106.49 360.786 104.357 358.59L105.622 357.706ZM95.556 344.044L97.1386 343.48L98.9269 348.499L97.3444 349.063L95.556 344.044ZM100.891 342.143L102.474 341.579L104.262 346.598L102.68 347.162L100.891 342.143ZM87.5404 348.505L88.0469 346.924C89.6435 347.043 91.679 347.464 92.7748 347.965L92.2714 349.699C91.1902 349.167 89.1305 348.678 87.5404 348.505ZM88.5399 355.028L89.0302 353.401C90.6107 353.475 92.6446 353.821 93.7695 354.261L93.2742 356.017C92.1864 355.538 90.159 355.139 88.5399 355.028ZM93.3956 366.725C93.8604 364.598 94.2973 361.104 94.4867 358.132L96.1831 358.675C96.0422 361.425 95.6847 364.712 95.2808 367.225L93.3956 366.725ZM122.19 355.93L119.093 357.034L113.454 341.208L116.551 340.105L118.823 346.48L122.44 345.191L120.169 338.816L123.266 337.712L128.905 353.537L125.808 354.641L123.471 348.085L119.854 349.374L122.19 355.93ZM137.818 350.361L136.45 348.021L132.878 349.294L133.297 351.972L130.222 353.068L127.635 336.155L132.315 334.488L140.848 349.282L137.818 350.361ZM130.921 338.297L131.916 343.878L132.377 346.746L135.203 345.739L133.725 343.234L130.966 338.281L130.921 338.297ZM149.218 346.299L141.873 339.057L141.776 339.142L142.862 341.762L145.013 347.798L142.164 348.813L136.526 332.987L138.809 332.174L146.207 339.78L146.304 339.694L145.064 337.002L142.833 330.74L145.682 329.725L151.321 345.55L149.218 346.299Z" fill="white" fill-opacity="0.2"/>
<path d="M75.7192 161.907L86.8874 157.927L87.4594 159.533L76.2912 163.512L75.7192 161.907ZM78.6733 162.332C83.0384 169.363 88.6804 174.257 95.7852 174.604C95.5137 175.058 95.2499 175.891 95.1382 176.364C87.6945 175.78 82.0268 170.742 77.2488 163.196L78.6733 162.332ZM86.5031 158.064L86.7744 157.968L87.0135 157.781L88.2049 157.764C90.3924 168.908 87.3406 176.289 81.7188 181.247C81.3623 180.89 80.7218 180.379 80.2392 180.169C85.6216 175.755 88.562 168.49 86.632 158.426L86.5031 158.064ZM69.5733 163.893L70.0135 162.411C71.7312 162.513 73.9395 162.847 75.179 163.322L74.75 164.978C73.5557 164.487 71.3297 164.032 69.5733 163.893ZM70.6421 170.468L71.0436 168.949C72.708 169.044 74.9163 169.378 76.1316 169.786L75.7559 171.448C74.5777 171.002 72.3452 170.6 70.6421 170.468ZM75.4383 181.854C76.0469 179.701 76.747 176.089 77.1173 173.052L78.6569 173.727C78.3126 176.55 77.7596 179.932 77.1749 182.51L75.4383 181.854ZM100.785 153.23L115.344 148.043L115.852 149.467L101.292 154.655L100.785 153.23ZM105.136 166.228L120.08 160.903L120.571 162.282L105.627 167.607L105.136 166.228ZM105.281 157.055L106.127 159.429L114.922 156.295L114.076 153.921L105.281 157.055ZM103.316 156.329L115.23 152.083L116.986 157.012L105.072 161.257L103.316 156.329ZM105.069 162.965L118.091 158.325L118.574 159.682L105.552 164.322L105.069 162.965ZM108.545 155.204L110.196 154.616L112.29 160.494C113.458 163.772 113.78 167.606 107.805 172.003C107.465 171.691 106.803 171.264 106.321 171.054C112.122 167.102 111.599 163.772 110.632 161.059L108.545 155.204ZM113.797 163.651C115.625 165.42 118.521 165.968 121.902 165.375C121.631 165.828 121.412 166.645 121.316 167.163C117.727 167.601 114.665 166.73 112.533 164.535L113.797 163.651ZM103.732 149.989L105.314 149.425L107.103 154.444L105.52 155.008L103.732 149.989ZM109.067 148.088L110.65 147.524L112.438 152.543L110.856 153.107L109.067 148.088ZM95.7163 154.45L96.2227 152.869C97.8193 152.988 99.8548 153.409 100.951 153.91L100.447 155.644C99.366 155.112 97.3064 154.623 95.7163 154.45ZM96.7157 160.973L97.206 159.346C98.7865 159.42 100.82 159.765 101.945 160.205L101.45 161.962C100.362 161.483 98.3349 161.084 96.7157 160.973ZM101.571 172.67C102.036 170.543 102.473 167.049 102.663 164.077L104.359 164.619C104.218 167.37 103.86 170.657 103.457 173.17L101.571 172.67ZM130.366 161.875L127.269 162.978L121.63 147.153L124.727 146.049L126.999 152.425L130.616 151.136L128.345 144.761L131.442 143.657L137.081 159.482L133.983 160.586L131.647 154.03L128.03 155.319L130.366 161.875ZM145.994 156.306L144.625 153.966L141.053 155.239L141.473 157.917L138.398 159.013L135.811 142.1L140.491 140.433L149.024 155.227L145.994 156.306ZM139.097 144.242L140.092 149.823L140.553 152.691L143.379 151.684L141.901 149.179L139.142 144.225L139.097 144.242ZM157.394 152.244L150.049 145.002L149.952 145.087L151.038 147.706L153.189 153.743L150.34 154.758L144.701 138.932L146.985 138.119L154.383 145.725L154.48 145.639L153.24 142.947L151.009 136.685L153.857 135.67L159.496 151.495L157.394 152.244ZM87.1313 193.934L98.2995 189.955L98.8715 191.56L87.7033 195.54L87.1313 193.934ZM90.0854 194.36C94.4505 201.39 100.093 206.285 107.197 206.632C106.926 207.085 106.662 207.918 106.55 208.391C99.1066 207.808 93.4389 202.77 88.6608 195.224L90.0854 194.36ZM97.9152 190.092L98.1865 189.995L98.4256 189.808L99.617 189.791C101.804 200.936 98.7527 208.316 93.1309 213.275C92.7744 212.918 92.1338 212.407 91.6513 212.197C97.0337 207.782 99.974 200.518 98.0441 190.454L97.9152 190.092ZM80.9854 195.921L81.4256 194.439C83.1433 194.54 85.3515 194.874 86.5911 195.35L86.162 197.006C84.9677 196.514 82.7418 196.059 80.9854 195.921ZM82.0542 202.495L82.4557 200.976C84.1201 201.071 86.3284 201.405 87.5437 201.813L87.168 203.476C85.9898 203.029 83.7573 202.627 82.0542 202.495ZM86.8504 213.882C87.459 211.729 88.159 208.116 88.5293 205.08L90.069 205.754C89.7247 208.578 89.1717 211.959 88.587 214.537L86.8504 213.882ZM112.197 185.258L126.756 180.07L127.264 181.494L112.704 186.682L112.197 185.258ZM116.548 198.255L131.492 192.931L131.983 194.31L117.039 199.635L116.548 198.255ZM116.693 189.082L117.539 191.456L126.334 188.323L125.488 185.949L116.693 189.082ZM114.728 188.356L126.642 184.111L128.398 189.039L116.484 193.285L114.728 188.356ZM116.481 194.993L129.503 190.353L129.986 191.709L116.964 196.349L116.481 194.993ZM119.958 187.232L121.608 186.643L123.702 192.521C124.87 195.8 125.192 199.634 119.217 204.031C118.877 203.719 118.215 203.292 117.733 203.082C123.535 199.129 123.011 195.8 122.044 193.087L119.958 187.232ZM125.21 195.679C127.037 197.448 129.933 197.996 133.314 197.402C133.043 197.856 132.824 198.673 132.729 199.191C129.139 199.629 126.077 198.758 123.945 196.563L125.21 195.679ZM115.144 182.017L116.726 181.453L118.515 186.472L116.932 187.036L115.144 182.017ZM120.479 180.116L122.062 179.552L123.85 184.571L122.268 185.134L120.479 180.116ZM107.128 186.478L107.635 184.896C109.231 185.015 111.267 185.436 112.363 185.938L111.859 187.671C110.778 187.139 108.718 186.65 107.128 186.478ZM108.128 193.001L108.618 191.374C110.199 191.448 112.232 191.793 113.357 192.233L112.862 193.989C111.774 193.51 109.747 193.112 108.128 193.001ZM112.983 204.698C113.448 202.57 113.885 199.077 114.075 196.105L115.771 196.647C115.63 199.398 115.273 202.685 114.869 205.198L112.983 204.698ZM141.778 193.902L138.681 195.006L133.042 179.181L136.139 178.077L138.411 184.452L142.028 183.163L139.757 176.788L142.854 175.685L148.493 191.51L145.396 192.614L143.059 186.057L139.442 187.346L141.778 193.902ZM157.406 188.334L156.037 185.993L152.465 187.266L152.885 189.945L149.81 191.04L147.223 174.128L151.903 172.46L160.436 187.254L157.406 188.334ZM150.509 176.269L151.504 181.851L151.965 184.718L154.791 183.711L153.313 181.206L150.554 176.253L150.509 176.269ZM168.806 184.272L161.461 177.029L161.364 177.115L162.45 179.734L164.601 185.77L161.752 186.785L156.113 170.96L158.397 170.146L165.795 177.752L165.892 177.667L164.652 174.975L162.421 168.712L165.27 167.697L170.908 183.523L168.806 184.272ZM98.5434 225.962L109.712 221.983L110.284 223.588L99.1153 227.567L98.5434 225.962ZM101.497 226.387C105.863 233.418 111.505 238.312 118.609 238.66C118.338 239.113 118.074 239.946 117.962 240.419C110.519 239.835 104.851 234.797 100.073 227.251L101.497 226.387ZM109.327 222.12L109.599 222.023L109.838 221.836L111.029 221.819C113.217 232.963 110.165 240.344 104.543 245.302C104.186 244.945 103.546 244.435 103.063 244.224C108.446 239.81 111.386 232.545 109.456 222.481L109.327 222.12ZM92.3975 227.948L92.8377 226.466C94.5554 226.568 96.7636 226.902 98.0032 227.377L97.5741 229.034C96.3798 228.542 94.1539 228.087 92.3975 227.948ZM93.4663 234.523L93.8678 233.004C95.5322 233.099 97.7404 233.433 98.9558 233.841L98.58 235.503C97.4018 235.057 95.1694 234.655 93.4663 234.523ZM98.2625 245.91C98.8711 243.756 99.5711 240.144 99.9414 237.107L101.481 237.782C101.137 240.605 100.584 243.987 99.9991 246.565L98.2625 245.91ZM123.609 217.285L138.168 212.098L138.676 213.522L124.116 218.71L123.609 217.285ZM127.96 230.283L142.904 224.958L143.395 226.337L128.451 231.662L127.96 230.283ZM128.106 221.11L128.951 223.484L137.746 220.35L136.9 217.976L128.106 221.11ZM126.14 220.384L138.054 216.138L139.81 221.067L127.896 225.312L126.14 220.384ZM127.893 227.02L140.915 222.38L141.398 223.737L128.376 228.377L127.893 227.02ZM131.37 219.259L133.02 218.671L135.114 224.549C136.283 227.827 136.604 231.662 130.629 236.058C130.289 235.746 129.627 235.32 129.145 235.109C134.947 231.157 134.423 227.827 133.456 225.114L131.37 219.259ZM136.622 227.706C138.449 229.475 141.345 230.023 144.726 229.43C144.455 229.883 144.236 230.7 144.141 231.218C140.551 231.656 137.49 230.786 135.357 228.59L136.622 227.706ZM126.556 214.044L128.139 213.48L129.927 218.499L128.344 219.063L126.556 214.044ZM131.891 212.143L133.474 211.579L135.262 216.598L133.68 217.162L131.891 212.143ZM118.54 218.505L119.047 216.924C120.643 217.043 122.679 217.464 123.775 217.965L123.271 219.699C122.19 219.167 120.131 218.678 118.54 218.505ZM119.54 225.028L120.03 223.401C121.611 223.475 123.645 223.821 124.77 224.261L124.274 226.017C123.186 225.538 121.159 225.139 119.54 225.028ZM124.396 236.725C124.86 234.598 125.297 231.104 125.487 228.132L127.183 228.675C127.042 231.425 126.685 234.712 126.281 237.225L124.396 236.725ZM153.19 225.93L150.093 227.034L144.454 211.208L147.551 210.105L149.823 216.48L153.44 215.191L151.169 208.816L154.266 207.712L159.905 223.537L156.808 224.641L154.471 218.085L150.854 219.374L153.19 225.93ZM168.818 220.361L167.45 218.021L163.878 219.294L164.297 221.972L161.222 223.068L158.635 206.155L163.315 204.488L171.848 219.282L168.818 220.361ZM161.921 208.297L162.916 213.878L163.377 216.746L166.203 215.739L164.725 213.234L161.966 208.281L161.921 208.297ZM180.218 216.299L172.873 209.057L172.776 209.142L173.862 211.762L176.013 217.798L173.164 218.813L167.526 202.987L169.809 202.174L177.207 209.78L177.304 209.694L176.064 207.002L173.833 200.74L176.682 199.725L182.321 215.55L180.218 216.299Z" fill="white" fill-opacity="0.2"/>
<path d="M101.258 270.286C159.288 228.757 133.228 225.524 169.729 210.727C205.9 203.493 187.964 224.527 200.639 228.813C210.779 232.241 209.704 254.397 204.501 267.413C207.962 275.978 216.795 290.758 224.446 281.354C232.097 271.95 240.305 282.065 243.453 288.298" stroke="white" stroke-width="2.5"/>
<path d="M101.989 270.246C162.494 310.692 138.184 218.817 155.754 144.946C206.844 165.245 233.446 154.384 279.46 119.375C233.5 221.619 233.279 268.196 243.83 288.877" stroke="white" stroke-width="2.5"/>
<path d="M211.558 175.892H234.742V178.16H211.558V175.892ZM211.162 196.448H234.958V198.644H211.162V196.448ZM215.986 183.56V187.34H229.99V183.56H215.986ZM213.574 181.544H232.546V189.392H213.574V181.544ZM212.71 191.804H233.446V193.964H212.71V191.804ZM221.53 182.588H224.158V191.948C224.158 197.168 222.682 202.748 212.026 205.952C211.702 205.34 210.982 204.404 210.406 203.864C220.594 201.2 221.53 196.232 221.53 191.912V182.588ZM224.698 197.168C226.39 200.588 230.206 202.82 235.282 203.684C234.67 204.188 233.95 205.232 233.554 205.916C228.262 204.728 224.374 201.956 222.466 197.78L224.698 197.168ZM217.354 172.796H219.874V180.788H217.354V172.796ZM225.85 172.796H228.37V180.788H225.85V172.796ZM203.782 175.064L205.294 173.084C207.49 174.056 210.154 175.676 211.45 176.936L209.866 179.132C208.606 177.836 205.942 176.108 203.782 175.064ZM201.91 184.784L203.422 182.732C205.618 183.632 208.318 185.144 209.686 186.332L208.102 188.564C206.806 187.34 204.142 185.756 201.91 184.784ZM202.882 203.756C204.61 200.984 206.986 196.268 208.75 192.164L210.874 193.784C209.29 197.6 207.13 202.064 205.294 205.412L202.882 203.756Z" fill="white"/>
</svg>
